<svg class="logo" width="958" height="378" viewBox="0 0 958 378" fill="none" xmlns="http://www.w3.org/2000/svg">
<path d="M846.4 39.09C847.583 38.955 848.777 38.955 849.96 39.09C851.27 39.1622 852.549 39.5201 853.706 40.1385C854.864 40.7569 855.872 41.6209 856.66 42.67C857.117 43.3279 857.427 44.0768 857.569 44.8655C857.71 45.6542 857.68 46.4641 857.48 47.24C857.42 47.61 857.31 47.96 857.27 48.33C856.46 54.61 867.01 69.89 871.04 74.73C872.44 86.93 875.13 98.97 875.7 111.27C876.35 125.2 872.99 132.54 876.06 147.16C876.4 139.62 875.52 132.5 877.06 124.99C887.06 134.54 899.76 150.92 902.27 164.64C903.54 171.57 903.27 178.87 903.35 185.89C903.47 193.43 903.42 201.43 904.98 208.82C906.7 216.97 911.98 223.96 914.3 232.01C917.41 242.74 915.68 253.31 916.53 264.19C916.99 269.98 918.79 275.64 918.95 281.45C917.49 283.13 900.56 282.35 897.7 282.54C894.439 282.819 891.199 283.307 888 284C893 267.32 904 252 906.42 234.8C899.42 253.22 890.13 270.37 883.73 289.05C880.3 288.05 876.96 286.86 873.61 285.68C865.22 282.1 856.36 278.86 848.33 274.53C852.33 264.18 856.82 254.01 860.1 243.38C862.72 234.9 863.83 225.57 867.54 217.49C869.63 212.94 873.54 209.7 875.92 205.31C876.01 205.15 876.09 204.98 876.17 204.82C875.52 176.56 854.54 166 849.17 142.34C847.39 134.45 847.98 126.43 848.24 118.42C846.17 117.632 844.147 116.727 842.18 115.71C839.748 114.383 837.608 112.578 835.89 110.405C834.172 108.231 832.91 105.733 832.18 103.06C831.394 100.351 831.161 97.5121 831.496 94.7116C831.831 91.9111 832.727 89.2068 834.13 86.76C837.77 80.76 843.55 78.2 850.07 76.58C850.754 77.2522 851.398 77.9634 852 78.71C860 88.94 861 102.92 858.32 115.25C856.92 121.77 854.75 128.15 853.98 134.79C853.72 136.98 853.46 139.48 854.98 141.33C855.085 138.315 855.375 135.309 855.85 132.33C857.1 126.24 859.49 120.47 860.53 114.33C863.34 97.73 859.18 88.33 852.77 73.5C850.4 68.02 848.39 62.44 846.39 56.82C844.62 56.92 842.3 57.32 840.67 56.54C837.67 55.09 837.02 50.97 836.11 48.06C836.9 46.64 837.71 45.23 838.56 43.84C840.45 40.57 842.88 39.91 846.4 39.09Z" fill="#232021"/>
<path d="M144.7 355.53L633.63 355.8L742.93 355.67C752.343 355.737 761.75 355.707 771.15 355.58C777.15 355.49 783.24 355.09 789.15 355.38C791.033 355.402 792.899 355.74 794.67 356.38C795.56 356.7 796.375 357.199 797.063 357.848C797.751 358.497 798.298 359.28 798.67 360.15C799.54 362.45 798.8 364.25 797.91 366.42C797.62 366.75 797.32 367.07 797.01 367.42C795.54 368.92 794.86 369.42 792.76 369.55C785.02 369.97 777.09 369.61 769.34 369.55H725.1L584.17 369.61H144.86C144.7 364.92 144.77 360.2 144.7 355.53Z" fill="#8B5CF6"/>
<path d="M104.43 256.28C105.09 253.28 105.23 249.53 108.1 247.73C114.2 243.91 120.56 240.73 127.96 242.64C129.885 243.132 131.692 244.005 133.274 245.207C134.856 246.409 136.181 247.917 137.17 249.64C138.208 251.496 138.85 253.548 139.057 255.664C139.264 257.781 139.03 259.918 138.37 261.94C136.04 269.83 133.75 267.09 129.79 271.41C128.91 272.36 129.55 274.24 128.58 275.65L127.53 276.03L125.85 274.78C124.33 275.83 123.67 276.54 121.76 276.72C120.03 275.96 117 272.87 115.3 273.72C113.6 274.57 112.82 276.81 112.38 278.61C110.48 286.32 110.24 305.55 112.55 313C114.77 320.15 118.49 326.8 120.82 333.94C123.39 341.79 124.87 350.79 129.43 357.8C130.72 359.8 132.69 361.01 133.43 363.34C133.12 364.99 132.76 365.16 131.61 366.34H130.61C129.736 365.417 128.953 364.412 128.27 363.34C125.617 363.229 122.974 363.735 120.55 364.82C120.285 364.368 120.138 363.856 120.122 363.331C120.106 362.807 120.222 362.288 120.46 361.82C120.984 360.556 121.589 359.327 122.27 358.14C117.17 349.37 103.54 325.05 101.13 316.67C98.72 308.29 99.32 299.73 96.13 291.3C87.59 310.73 90.13 321.41 94.48 341.03C95.78 346.84 96.61 353.1 98.82 358.64C99.3908 360.352 100.322 361.923 101.55 363.246C102.778 364.569 104.275 365.614 105.94 366.31C109.29 367.8 116.31 367.31 118.21 370.21C118.13 371.01 118.29 371.21 117.6 371.79C114.8 374.05 109.6 373.61 106.23 373.01C101.73 372.19 96.82 370.43 94.23 366.47C91.03 361.64 88.95 355.56 86.66 350.22C83.57 343.03 80.06 335.69 78.29 328.05C76.02 318.18 77.35 296.87 77.92 286.26C69.81 284.88 61.51 284.26 53.44 286.26C61.76 296.14 72.09 307.81 75.31 320.55C73.31 330.11 62.82 345.55 63.15 354.06C64.15 354.98 64.46 354.88 65.81 355.06C65.81 357.23 63.75 356.66 66.07 359C69.84 362.79 78.3 365.34 80.4 369.53C80.339 370.016 80.1544 370.478 79.8637 370.872C79.573 371.266 79.1861 371.578 78.74 371.78C73.63 375 59.74 370.78 53.92 370.01C50.54 369.54 47.05 369.94 43.79 368.76C42.5821 368.372 41.5488 367.572 40.87 366.5C40.6605 365.65 40.6332 364.764 40.7901 363.903C40.9469 363.041 41.2843 362.222 41.78 361.5C43.88 357.75 47.59 355.5 49.92 352.07C52.97 347.56 55.24 335.38 56.81 329.64C52.31 332.71 24.63 350.78 23.22 353.23L23.92 353.67C23.86 353.83 23.79 354 23.73 354.17C23.04 356.03 22.65 357.48 23.56 359.38C25.56 363.64 33.96 366 34.31 370.2C33.8453 371.073 33.1892 371.829 32.3909 372.413C31.5926 372.997 30.6727 373.392 29.7 373.57C24.94 374.75 19 373.14 14.99 370.49C13.63 369.59 10.89 367.66 10.29 366.14C7.95999 365.21 5.52999 364.45 3.15999 363.62C2.14812 362.646 1.26436 361.547 0.529989 360.35C0.244653 359.845 0.0727065 359.283 0.0260823 358.705C-0.0205418 358.126 0.0592737 357.545 0.259989 357C3.18999 352 7.74999 352.37 11.75 349C15.59 345.76 18.75 341.76 22.09 338C29.3 329.82 37.42 322.09 47.44 317.5C38.26 308.5 16.79 293.5 16.85 279.56C16.8919 277.479 17.3723 275.429 18.2597 273.546C19.1471 271.663 20.4215 269.988 22 268.63C32.66 259 66.9 256.51 81 257.54C90.76 258.25 94.49 259 104.43 256.28Z" fill="#232021"/>
<path d="M0.259996 357C3.79 359.44 8.26 362.31 10.26 366.21C7.93 365.28 5.5 364.52 3.13 363.69C2.11813 362.716 1.23436 361.617 0.499996 360.42C0.209009 359.903 0.0365204 359.329 -0.00498758 358.737C-0.0464956 358.146 0.0440158 357.552 0.259996 357Z" fill="#3C3A3B"/>
<path d="M281.79 151.26C283.339 151.44 284.848 151.869 286.26 152.53C290.87 154.6 292.89 157.85 294.64 162.34C293.2 165.14 291.27 167.82 289.57 170.47C295.72 165.79 300.24 158.53 307.2 154.9C308.168 154.311 309.254 153.942 310.381 153.819C311.508 153.697 312.648 153.823 313.72 154.19C317.56 155.69 319.84 160.19 321.28 163.83C323.4 160.83 325.78 157.5 328.89 155.47C330.44 154.47 333.13 153.16 335.02 153.89C337.32 154.78 339.57 157.89 340.54 160.09C344.73 169.41 334.39 185.26 330.9 194.33C328.76 199.89 325.5 209.69 328.32 215.33C328.603 215.931 329.022 216.458 329.542 216.871C330.062 217.283 330.671 217.571 331.32 217.71C337.02 219.03 344.32 214.03 348.77 211C345.77 216.08 342.1 220.23 336.77 222.86C332.59 224.86 327.07 225.86 322.61 224.17C321.23 223.601 319.988 222.744 318.967 221.656C317.946 220.567 317.17 219.273 316.69 217.86C310.88 203.08 322.5 182.77 328.55 169.67C325.679 172.376 322.984 175.262 320.48 178.31C309.8 190.58 298.85 206.66 293.42 222.04C290.67 220.04 288.47 217.89 287.2 214.64C282.08 201.59 298.96 180.21 304.15 168.42L304.44 167.74C294.06 177.39 270.74 204.12 264.81 216.09C263.48 218.69 262.758 221.56 262.7 224.48V225.22L262.11 225.35C259.683 224.191 257.798 222.137 256.85 219.62C250.63 203.82 274.85 167.94 281.53 152.01L281.79 151.26Z" fill="#232021"/>
<path d="M542 121.74C547.78 121.51 554 121.51 559.71 122.74C565.42 123.97 568.99 126.29 572.15 131.13C572.407 133.641 572.313 136.175 571.87 138.66C570.87 139.66 569.63 138.6 568.35 138.12C562.129 135.716 555.486 134.593 548.82 134.82C529.91 134.93 511.11 138.6 492.54 141.76C486.27 152.62 478.69 164.35 474.68 176.28C480.084 175.474 485.537 175.046 491 175C493.233 176.809 495.246 178.873 497 181.15C487.86 182.15 479 184.83 469.78 185.58C463.2 200.41 459.45 217.13 456.85 233.08C456.59 235.57 456.73 239.3 455.33 241.31C454.887 241.588 454.384 241.758 453.863 241.806C453.342 241.855 452.817 241.781 452.33 241.59C448.99 240.66 445.47 236.18 444.04 233.21C440.04 225 448.29 197.55 451.49 188.21C450.92 187.86 450.34 187.5 449.78 187.12C447.57 185.68 446.42 184.61 445.87 182C445.958 181.23 446.283 180.507 446.8 179.93C448.65 177.93 452.14 178.38 454.63 178.31C460.95 165.92 466.99 153.44 474.18 141.52C471.04 142.52 467.18 143.44 464.34 145.19C460.42 147.64 459.69 151.19 458.67 155.38C456.21 152.22 453.85 148.61 453.38 144.53C453.224 143.651 453.261 142.75 453.487 141.886C453.713 141.023 454.124 140.219 454.69 139.53C461.22 132.31 506.18 125.07 517.43 123.64C525.67 122.63 533.83 122.1 542 121.74Z" fill="#232021"/>
<path d="M689.16 126.49C690.083 126.517 691.002 126.614 691.91 126.78C693.52 127.13 695.64 128.21 696.36 129.78C697.96 133.26 692.55 141.73 691.24 145.5C696.04 145.41 700.99 145.28 705.78 145.6C707.97 145.74 710.3 146.04 711.78 147.73L711.42 148.66C705.56 153.24 694.56 153.27 687.33 153.72C680.47 167.34 670.95 190.31 668.73 205.33C668.25 208.63 667.83 213.33 670.18 216C672.08 218.17 678.77 216.53 681.58 216.79L682.03 217.36C681.894 218.256 681.551 219.109 681.03 219.85C679.03 222.85 673.56 224.33 670.19 224.72C666.39 225.17 662.03 224.82 658.97 222.3C654.97 218.99 654.36 213.68 653.82 208.86C649.98 212.548 645.771 215.832 641.26 218.66C635.04 222.5 627.76 224.88 620.45 222.97C618.16 222.366 616.022 221.287 614.175 219.804C612.329 218.321 610.814 216.466 609.73 214.36C605.17 205.95 605.6 196.23 608.38 187.36C612.48 174.22 620.87 161.49 633.27 155C637.4 153.36 641.59 152.34 646.02 153.4C647.922 153.855 649.712 154.692 651.28 155.861C652.848 157.03 654.161 158.507 655.14 160.2C657.82 164.81 657.9 170.62 656.41 175.63C655.867 177.766 654.886 179.766 653.527 181.501C652.169 183.237 650.463 184.67 648.52 185.71C646.86 184.14 645.35 182.4 643.8 180.71C645.8 176.16 648.46 171.04 648.89 166.06C649.054 165.208 649.018 164.329 648.786 163.493C648.553 162.656 648.13 161.885 647.55 161.24C646.893 160.908 646.148 160.789 645.42 160.9C640.42 161.6 635.34 168.29 632.59 172.17C626 181.45 619.44 195.51 621.59 207.17C622.08 209.78 623.2 213.28 625.74 214.63C628.28 215.98 631.94 215.04 634.42 214.14C640.97 211.77 650.48 205.45 654.21 199.53C657.39 194.53 659.32 183.96 661.55 177.87C664.62 169.51 668.38 161.44 672.14 153.38C667.23 153.15 660.71 153.47 656.46 150.78C654.22 149.36 653.1 146.3 652.46 143.78C652.176 142.962 652.07 142.093 652.15 141.23C652.229 140.368 652.492 139.533 652.92 138.78L654.06 138.52C655.5 140.46 657.19 143.25 659.11 144.67C662.78 147.39 671.37 145.96 675.66 145.59C679.13 139.75 683.35 130.15 689.16 126.49Z" fill="#232021"/>
<path d="M399.61 125.2C405.08 124.73 411.19 126.12 415.45 129.71C417.221 131.208 418.667 133.052 419.699 135.129C420.731 137.207 421.327 139.474 421.45 141.79C421.669 147.276 419.723 152.627 416.03 156.69C415.035 157.827 413.816 158.746 412.45 159.392C411.084 160.037 409.6 160.394 408.09 160.44C403.15 160.38 399.85 156.97 396.67 153.66C399.03 152.161 401.276 150.49 403.39 148.66C406.16 146.12 409.67 141.83 409.39 137.78C409.28 136.36 408.85 136.04 407.94 135.05C406.749 134.489 405.432 134.251 404.12 134.36C397.12 134.91 388.95 141.27 384.55 146.55C381.67 150 379.31 154.31 379.83 158.94C380.95 168.94 395.13 173.94 402.19 179.43L402.7 179.83C397.42 182.67 391.97 185.19 386.7 188.05C379.48 191.97 369.76 197.54 367.49 206.05C367.084 207.509 366.975 209.034 367.171 210.536C367.367 212.038 367.863 213.484 368.63 214.79C370.76 218.19 374.39 219.31 378.05 220.28C391.54 217.01 395.1 203.14 403 193.34C406.135 189.303 409.733 185.648 413.72 182.45C416.07 180.63 420.56 177.13 423.66 177.96C425.85 178.55 426.84 181.16 427.82 182.96C425.16 187.85 421.82 192.48 418.82 197.19C411.82 208.31 404.55 223.04 392.11 228.9C388.318 230.613 384.224 231.562 380.065 231.69C375.905 231.819 371.761 231.126 367.87 229.65C361.24 227.17 355.04 222.3 352.23 215.65C351.228 213.18 350.746 210.529 350.813 207.864C350.88 205.2 351.495 202.577 352.62 200.16C357.69 188.42 370.39 183 381.43 178.39C379.08 176.83 376.67 175.28 374.43 173.56C369.43 169.81 365.6 165.14 364.83 158.76C364.06 152.38 367.06 146 371 141.07C378.121 132.274 388.378 126.585 399.61 125.2Z" fill="#8B5CF6"/>
<path d="M206.35 121.73C215.62 121.16 227.87 120.73 236.35 125.01C241.17 127.45 243.35 130.68 245.1 135.61C223.31 130.9 197.51 134.9 175.49 137.61C165.55 149.31 156.37 160.82 149.13 174.42C152.06 174.42 155.82 174.2 158.51 175.42C162.17 177.09 163.09 180.55 164.4 184.03C157.4 183.95 150.55 184.88 143.59 185.78C136.43 200.86 131.19 217.91 136.38 234.28C134.778 234.556 133.131 234.372 131.63 233.75C126.63 231.83 121.83 226.83 119.63 222.03C114.92 211.81 120.93 199.48 124.53 189.75C123.418 189.497 122.33 189.146 121.28 188.7C119.83 188.01 117.74 186.08 117.36 184.47C117.267 183.933 117.285 183.383 117.412 182.854C117.539 182.324 117.773 181.826 118.1 181.39C120.38 177.58 125.51 177.01 129.42 176.19C135.67 163.65 143.42 152.58 151.42 141.12C146.92 142.71 140.59 143.68 136.98 146.85C135.42 148.21 134.08 149.91 132.57 151.35L131.65 151.22C129.846 149.035 128.747 146.353 128.5 143.53C128.41 141.82 128.995 140.143 130.13 138.86C136.33 131.43 175.64 124.86 186.13 123.45C192.84 122.59 199.57 122.11 206.35 121.73Z" fill="#232021"/>
<path d="M219.46 171.85C218.78 165.85 216.54 158.39 211.78 154.45C208.6 151.83 205.78 151.38 201.72 151.59C188.09 155.18 178.64 166.72 171.8 178.47C166.31 187.91 162.22 200.36 165.09 211.28C165.72 213.841 166.869 216.246 168.465 218.346C170.061 220.446 172.071 222.197 174.37 223.49C177.041 224.981 179.981 225.929 183.02 226.28C192.67 225.28 200.33 220.79 206.4 213.28C214.86 202.72 221 185.42 219.46 171.85ZM200.34 206.58C196.53 210.7 192.81 212.89 187.16 213.1C186.007 212.692 184.956 212.038 184.08 211.183C183.205 210.328 182.526 209.293 182.09 208.15C179.64 202.32 182.6 193.89 184.97 188.38C189.36 178.2 197 166.17 207.72 162C208.53 162.178 209.295 162.518 209.97 163C212.03 164.47 212.81 167.89 212.97 170.24C213.75 181.89 208.31 198 200.34 206.58Z" fill="#232021"/>
<path d="M767.69 171.61C767.52 166.31 766.21 160.32 762.12 156.61C760.665 155.35 758.971 154.397 757.14 153.808C755.308 153.219 753.376 153.005 751.46 153.18C740.24 154.35 731.19 162.06 724.34 170.58C716.34 180.58 711.59 194.1 713.12 206.96C713.79 212.55 716.02 217.56 720.53 221.09C723.206 223.15 726.331 224.548 729.65 225.17C738.47 224.99 744.78 221.33 750.75 215.1C761.34 204.09 768.21 186.94 767.69 171.61ZM748 204.45C744.63 208.6 741.16 211.33 735.74 211.91C734.719 211.633 733.762 211.157 732.926 210.508C732.09 209.859 731.391 209.051 730.87 208.13C728.25 203.97 729.07 198.34 730.24 193.8C733.37 181.62 742.67 168.97 753.44 162.5C754.59 162.337 755.762 162.45 756.86 162.83C758.66 163.78 759.36 166.54 759.61 168.38C761.15 179.62 755 195.81 748 204.45Z" fill="#232021"/>
<path d="M571.12 151.23C575.46 152.67 579.01 156.15 581.39 159.94C579.39 164.89 576.39 169.55 574.01 174.36C579.28 168.69 589.79 155.25 597.83 155C600.39 154.91 605.24 157.91 606.83 159.73C608.054 161.05 608.739 162.78 608.75 164.58C608.28 175.49 593.75 194.12 593.67 209.92C593.67 218.08 601.35 215.38 605.18 219.03C605.18 219.56 605.18 219.88 605.18 220.38C605.04 222.38 604.18 224.88 602.41 226.07C600.41 227.42 597.9 226.71 595.77 226.16C590.35 224.74 584.61 221.85 581.77 216.77C578.26 210.4 580.67 201.3 582.54 194.77C585.783 185.381 590.4 176.525 596.24 168.49C589.55 172.84 584.24 178.26 579.1 184.34C571.64 193.2 561.89 206.16 560 218C559.48 221.25 560.07 225 560.33 228.29C557.177 227.402 554.221 225.922 551.62 223.93C550.2 222.92 548.999 221.633 548.09 220.146C547.181 218.659 546.582 217.004 546.33 215.28C544.55 200 561.86 163.6 571.12 151.23Z" fill="#232021"/>
<path d="M809.86 172.79C797.41 182.11 785.1 200.3 777.94 214.32C776.34 217.45 776.42 221.42 774.68 224.4C773.14 224.98 770.86 224.46 769.36 223.89C768.438 223.497 767.603 222.925 766.902 222.208C766.202 221.49 765.651 220.641 765.28 219.71C763.61 215.84 763.97 210.16 764.83 206.08C768.5 188.81 779.96 168.17 786.72 151.57C788.368 150.955 790.19 150.995 791.81 151.68C792.71 151.993 793.532 152.495 794.222 153.152C794.912 153.809 795.454 154.606 795.81 155.49C799.49 164.41 791.48 177.29 788.03 185.22C793.63 177.67 807.6 156.95 816.17 154.86C818.508 154.335 820.959 154.744 823 156C836.33 164.61 809.32 198.57 812.7 211.65C812.864 212.424 813.196 213.152 813.673 213.782C814.15 214.413 814.76 214.931 815.46 215.3C818.07 216.7 821.39 215.6 823.97 214.79C825.32 215.17 826.4 215.19 827.26 216.4C827.363 216.564 827.457 216.735 827.54 216.91C825.537 219.606 822.894 221.761 819.85 223.18C815.85 225.09 811.48 226.18 807.23 224.43C805.625 223.836 804.158 222.921 802.92 221.739C801.682 220.558 800.698 219.136 800.03 217.56C794.86 205.1 805.14 184.55 809.86 172.79Z" fill="#232021"/>
<path d="M511.89 152.21C512.327 152.292 512.758 152.402 513.18 152.54C517.69 154.13 521.35 158.73 523.43 162.83C515.75 176.83 507.28 189.95 503.52 205.77C502.84 208.62 501.89 213.21 503.92 215.7C504.18 216.121 504.563 216.45 505.018 216.644C505.473 216.837 505.977 216.885 506.46 216.78C519.05 210.13 536.4 174.29 543.65 160.85C547.965 162.884 551.787 165.832 554.85 169.49C550.564 176.357 546.749 183.507 543.43 190.89C540.68 196.5 535.28 208.25 537.21 214.6C538.36 218.37 543.54 220.07 546.78 221.7C545.324 224.276 543.63 226.71 541.72 228.97C539.464 228.032 537.273 226.946 535.16 225.72C529.49 222.35 525.16 218.58 523.42 211.96C519.575 218.066 515.115 223.762 510.11 228.96C506.837 228.344 503.697 227.163 500.83 225.47C496.57 223.12 490.83 219.25 489.59 214.32C486.83 203.4 497.78 178.62 502.79 168.56C505.55 163 508.83 157.61 511.89 152.21Z" fill="#232021"/>
<path d="M769.4 53.39C771.98 51.46 774.1 49.66 777.4 49.26C779.21 49.67 780.02 50.92 780.96 52.42C785.09 59 788.23 66.87 791.22 74C805.82 66.42 820.41 58.25 835.32 51.33L837.74 55.78C822.85 63.02 808.29 70.93 793.54 78.45C796.4 84 805.73 99.74 804.87 105.25C803.03 108.52 800 109.44 796.6 110.6C795.403 109.102 794.288 107.539 793.26 105.92L791.83 106.56C791.462 106.872 791.067 107.149 790.65 107.39C789.32 108.23 787.11 109.52 785.48 108.94C782.89 108.02 781.48 103.64 780.28 101.37L773.71 104.09C770.87 99.89 769.82 94.83 766.71 90.81L765.71 89.25C765.62 85.6 763.22 82.06 761.64 78.89C760.51 76.62 759.93 75.15 760.75 72.66C761.98 71.01 763.88 70.5 765.75 69.76C765.19 67.51 763.49 64.87 763.48 62.58C763.476 62.0334 763.601 61.4936 763.846 61.0051C764.091 60.5165 764.449 60.0932 764.89 59.77C766.035 59.48 767.235 59.48 768.38 59.77C770.57 60.16 771.01 61.5 772.13 63.2L772.93 62.84C771.578 59.7584 770.399 56.6034 769.4 53.39Z" fill="#232021"/>
<path d="M765.73 69.76C765.17 67.51 763.47 64.87 763.46 62.58C763.456 62.0334 763.581 61.4936 763.826 61.0051C764.071 60.5165 764.429 60.0932 764.87 59.77C766.015 59.48 767.215 59.48 768.36 59.77C770.55 60.16 770.99 61.5 772.11 63.2C778.43 76.73 786.73 92.83 791.83 106.6C791.462 106.912 791.067 107.189 790.65 107.43C789.32 108.27 787.11 109.56 785.48 108.98C782.89 108.06 781.48 103.68 780.28 101.41L773.71 104.13C770.87 99.93 769.82 94.87 766.71 90.85L765.71 89.29C765.62 85.64 763.22 82.1 761.64 78.93C760.51 76.66 759.93 75.19 760.75 72.7C762 71 763.87 70.5 765.73 69.76Z" fill="#232021"/>
<path d="M772.91 62.8C780.09 76.95 786.3 91.65 793.26 105.92L791.83 106.56C786.73 92.79 778.43 76.69 772.11 63.16L772.91 62.8Z" fill="#D1D1D5"/>
<path d="M895.17 284.62C902.05 283.93 909.38 284.85 916.3 285.23C916.3 292.68 914.4 300.29 915.3 307.73C915.98 313.5 920.14 320.13 922.12 325.73C925.12 334.21 927.51 342.91 930.58 351.38C931.779 350.7 933.046 350.147 934.36 349.73C935.86 349.27 937.36 348.95 938.77 349.73C939.35 351.16 938.98 351.87 938.68 353.36C940.075 354.973 941.679 356.392 943.45 357.58C947.38 359.99 953.57 361.12 956.45 364.82C956.757 365.198 956.976 365.641 957.088 366.116C957.201 366.59 957.205 367.084 957.1 367.56C956.53 369.68 954.78 370.56 953.01 371.56C950.351 372.271 947.599 372.568 944.85 372.44C938.28 372.29 918.18 370.86 913.69 366.17C912.06 361.34 918.32 355.01 920.17 350.62L920.41 350.03C915.79 337.93 905.94 329.13 901.15 317.24C898.51 310.69 899.09 303.39 898.21 296.51C897.597 292.455 896.578 288.472 895.17 284.62Z" fill="#232021"/>
<path d="M237.33 149.79C239.713 150.538 241.917 151.764 243.809 153.394C245.7 155.024 247.239 157.024 248.33 159.27C245.783 164.93 243.197 170.57 240.57 176.19C247.1 168.41 254.57 161.37 261.77 154.19C266.212 155.986 270.034 159.037 272.77 162.97C261.6 171.27 251.48 181.02 240.88 190.04C232.48 196.53 226.904 206.006 225.31 216.5C224.79 219.82 224.99 223.45 223.72 226.58C223 226.76 223.19 226.86 222.64 226.58C219.299 224.828 216.726 221.899 215.42 218.36C210.75 204.64 231 163.3 237.33 149.79Z" fill="#232021"/>
<path d="M850.79 278.74C857.07 281.33 864.09 283.66 869.86 287.22C866 296.85 859.73 298.06 854.36 305.47C851.26 309.74 849.26 314.82 846.36 319.27C841.01 327.58 834.82 335.41 829.27 343.6C827.79 345.98 826.39 348.42 824.96 350.83C822.107 350.39 819.267 349.907 816.44 349.38C824.23 338.01 824.44 323.04 830.44 310.63C834.62 301.99 841.73 295.88 846.65 287.84C848.298 284.936 849.683 281.89 850.79 278.74Z" fill="#232021"/>
<path d="M879 28.93C877 24.61 868.27 8.06 869.26 4.32C869.68 2.71 871.48 1.41 872.95 0.830001C873.862 0.466512 874.839 0.295741 875.82 0.32844C876.801 0.36114 877.765 0.596603 878.65 1.02C880.65 2.09 881.36 4.76 882.16 6.72L882.46 6.14C884.6 7.88 898.39 36.32 899.62 40.2L899.04 41.2C901.04 44.48 903.4 49.13 903.73 52.97C903.082 54.8299 901.748 56.3717 900 57.28C899.287 57.7974 898.474 58.1599 897.613 58.3441C896.752 58.5284 895.862 58.5304 895 58.35C890.54 54.63 884.39 38.96 881.77 33.35C877.07 35.41 862.77 44.27 858.58 43.66C857.871 42.7764 857.408 41.7205 857.24 40.6C861.93 36.63 873 32 879 28.93Z" fill="#232021"/>
<path d="M882.5 6.14C884.64 7.88 898.43 36.32 899.66 40.2L899.08 41.2C893.47 29.68 887.96 18.2 882.2 6.69L882.5 6.14Z" fill="#909097"/>
<path d="M708.24 157.86C710.98 159.18 714.1 164.07 715.44 166.76C709.59 179.53 699.14 197.82 698.96 211.83C698.9 216.46 702.37 221.06 702.06 224.75C700.8 226.13 699.58 226.22 697.81 226.75C695.199 226.074 692.845 224.644 691.04 222.64C686.3 217.03 686.12 208.55 686.93 201.58C688.59 187.22 696.69 167.06 708.24 157.86Z" fill="#232021"/>
<path d="M882.5 6.14C882.66 4.59 882.65 3.94 883.91 2.94C885.49 1.67 887.91 0.82 889.75 0C891.241 2.50204 892.596 5.08243 893.81 7.73L894.34 6.61C895.23 4.85 897.81 4 899.56 3.32C900.226 3.30159 900.887 3.44479 901.486 3.73734C902.085 4.0299 902.605 4.46312 903 5C905.26 7.89 906.12 12.49 907.74 15.85C909.21 13.78 910.74 11.47 913.43 10.97C914.566 10.7525 915.743 10.9664 916.73 11.57C917.251 11.8933 917.69 12.332 918.014 12.8522C918.339 13.3724 918.539 13.9601 918.6 14.57C918.661 15.2484 918.577 15.932 918.352 16.5752C918.128 17.2184 917.769 17.8064 917.3 18.3C915.6 20.11 913.02 20.3 910.71 20.62C912 23.73 916.08 30.38 914.96 33.62C914.711 34.1741 914.334 34.6618 913.862 35.0439C913.39 35.4261 912.834 35.6919 912.24 35.82C910.78 36.29 909.88 36.62 908.45 36.08L907.86 35.38L907.19 36.07C908.19 38.48 910.62 42.31 909.54 44.92C908.82 46.68 906.54 47.11 904.9 47.64L904.12 47.89C902.54 45.36 901.06 42.89 899.7 40.19C898.43 36.32 884.64 7.88 882.5 6.14Z" fill="#232021"/>
<path d="M894.34 6.61C895.23 4.85 897.81 3.99999 899.56 3.31999C900.226 3.30159 900.887 3.44478 901.486 3.73734C902.085 4.02989 902.605 4.46312 903 4.99999C905.26 7.89 906.12 12.49 907.74 15.85C909.21 13.78 910.74 11.47 913.43 10.97C914.566 10.7525 915.743 10.9664 916.73 11.57C917.251 11.8933 917.69 12.332 918.014 12.8522C918.339 13.3724 918.539 13.9601 918.6 14.57C918.661 15.2484 918.577 15.932 918.352 16.5752C918.128 17.2184 917.769 17.8064 917.3 18.3C915.6 20.11 913.02 20.3 910.71 20.62C912 23.73 916.08 30.38 914.96 33.62C914.711 34.1741 914.334 34.6618 913.862 35.0439C913.39 35.4261 912.834 35.6919 912.24 35.82C910.78 36.29 909.88 36.62 908.45 36.08L907.86 35.38L907.19 36.07C902.7 26.76 897.54 17.35 893.85 7.72L894.34 6.61Z" fill="#232021"/>
<path d="M894.34 6.61C898.34 16.35 904.24 25.61 907.82 35.39L907.15 36.08C902.66 26.77 897.5 17.36 893.81 7.73L894.34 6.61Z" fill="#909097"/>
<path d="M814.19 352.65C816.272 352.345 818.388 352.345 820.47 352.65C821.456 352.817 822.39 353.209 823.198 353.798C824.007 354.386 824.668 355.153 825.13 356.04C826.98 359.04 832.13 371.65 830.73 374.73C829.96 376.45 827.3 377.11 825.73 377.64C821.56 377.81 816.73 378.24 812.73 377.11C811.865 376.938 811.045 376.591 810.321 376.088C809.597 375.586 808.984 374.94 808.52 374.19C806.47 370.33 807.86 363.8 809.1 359.76C810.09 356.32 811 354.32 814.19 352.65Z" fill="#232021"/>
<path d="M719.58 135.06C720.742 134.857 721.925 134.803 723.1 134.9C724.055 135.018 724.974 135.34 725.793 135.844C726.613 136.349 727.314 137.024 727.849 137.824C728.385 138.624 728.741 139.53 728.895 140.48C729.049 141.43 728.996 142.402 728.74 143.33C728.02 147.33 725.66 150.21 722.45 152.47C721.443 152.643 720.421 152.706 719.4 152.66C718.473 152.595 717.571 152.337 716.749 151.903C715.928 151.469 715.206 150.869 714.63 150.14C714.014 149.181 713.607 148.103 713.435 146.976C713.262 145.85 713.329 144.699 713.63 143.6C714.414 140.082 716.551 137.014 719.58 135.06Z" fill="#232021"/>
<path d="M766.68 90.81C766.151 91.6567 765.541 92.4503 764.86 93.18C763.59 94.56 762 96 760 95.79C759.431 95.7291 758.881 95.5445 758.391 95.2491C757.9 94.9537 757.48 94.5547 757.16 94.08C756.763 93.5225 756.481 92.891 756.332 92.223C756.182 91.5549 756.168 90.8637 756.29 90.19C756.413 89.5888 756.679 89.0261 757.066 88.5493C757.452 88.0725 757.947 87.6954 758.51 87.45C760.91 86.45 763.73 88.11 765.72 89.25L766.68 90.81Z" fill="#232021"/>
<path d="M823.92 214.78C827.562 212.407 831.052 209.808 834.37 207C832.571 210.627 830.254 213.972 827.49 216.93C827.406 216.755 827.313 216.584 827.21 216.42C826.35 215.18 825.27 215.16 823.92 214.78Z" fill="#232021"/>
<path d="M197.09 274.06V278.5H178.91V292.6H193.67V297H178.91V315.84H173.45V274.06H197.09Z" fill="black"/>
<path d="M207.65 274.06V315.88H202.19V274.06H207.65Z" fill="black"/>
<path d="M241.19 274.06V278.5H229.79V315.88H224.33V278.5H212.87V274.06H241.19Z" fill="black"/>
<path d="M279.29 315.88H273.83L251.83 282.58V315.88H246.37V274H251.83L273.83 307.24V274H279.29V315.88Z" fill="black"/>
<path d="M292.55 278.5V292.5H307.79V297H292.55V311.4H309.55V315.9H287.05V274H309.55V278.5H292.55Z" fill="black"/>
<path d="M322.22 314.83C320.174 313.957 318.401 312.547 317.09 310.75C315.848 308.995 315.178 306.9 315.17 304.75H321C321.167 306.644 322.034 308.409 323.43 309.7C324.85 311.033 326.92 311.7 329.64 311.7C331.86 311.826 334.048 311.132 335.79 309.75C336.516 309.139 337.095 308.372 337.484 307.506C337.874 306.641 338.064 305.699 338.04 304.75C338.102 303.331 337.631 301.94 336.72 300.85C335.819 299.836 334.687 299.053 333.42 298.57C331.672 297.914 329.889 297.353 328.08 296.89C325.82 296.335 323.603 295.613 321.45 294.73C319.761 293.987 318.293 292.819 317.19 291.34C315.93 289.523 315.307 287.339 315.42 285.13C315.382 282.982 315.988 280.871 317.16 279.07C318.355 277.282 320.033 275.87 322 275C324.278 274.004 326.744 273.512 329.23 273.56C332.681 273.413 336.079 274.45 338.86 276.5C340.074 277.429 341.079 278.604 341.808 279.948C342.537 281.292 342.974 282.775 343.09 284.3H337.09C336.84 282.613 335.935 281.093 334.57 280.07C332.886 278.788 330.804 278.14 328.69 278.24C326.679 278.152 324.703 278.779 323.11 280.01C322.388 280.609 321.817 281.369 321.442 282.228C321.066 283.088 320.898 284.023 320.95 284.96C320.893 286.319 321.354 287.649 322.24 288.68C323.114 289.649 324.203 290.399 325.42 290.87C326.68 291.37 328.45 291.94 330.73 292.58C333 293.172 335.226 293.924 337.39 294.83C339.094 295.589 340.58 296.765 341.71 298.25C342.998 300.078 343.632 302.287 343.51 304.52C343.513 306.553 342.952 308.547 341.89 310.28C340.727 312.157 339.065 313.673 337.09 314.66C334.766 315.827 332.19 316.404 329.59 316.34C327.054 316.365 324.542 315.85 322.22 314.83Z" fill="black"/>
<path d="M355.94 314.83C353.894 313.957 352.121 312.547 350.81 310.75C349.568 308.995 348.898 306.9 348.89 304.75H354.71C354.877 306.644 355.744 308.409 357.14 309.7C358.56 311.033 360.63 311.7 363.35 311.7C365.57 311.826 367.758 311.132 369.5 309.75C370.226 309.139 370.805 308.372 371.194 307.506C371.584 306.641 371.774 305.699 371.75 304.75C371.812 303.331 371.341 301.94 370.43 300.85C369.529 299.836 368.397 299.053 367.13 298.57C365.382 297.914 363.599 297.353 361.79 296.89C359.53 296.335 357.313 295.613 355.16 294.73C353.471 293.987 352.003 292.819 350.9 291.34C349.64 289.523 349.017 287.339 349.13 285.13C349.092 282.982 349.698 280.871 350.87 279.07C352.077 277.271 353.774 275.855 355.76 274.99C358.038 273.994 360.504 273.502 362.99 273.55C366.441 273.403 369.839 274.44 372.62 276.49C373.834 277.419 374.839 278.594 375.568 279.938C376.297 281.282 376.734 282.765 376.85 284.29H370.85C370.6 282.603 369.695 281.083 368.33 280.06C366.646 278.778 364.564 278.13 362.45 278.23C360.439 278.142 358.463 278.769 356.87 280C356.148 280.599 355.577 281.359 355.202 282.218C354.826 283.078 354.658 284.014 354.71 284.95C354.652 286.309 355.114 287.639 356 288.67C356.874 289.639 357.963 290.389 359.18 290.86C360.44 291.36 362.21 291.93 364.49 292.57C366.76 293.162 368.986 293.914 371.15 294.82C372.854 295.579 374.34 296.755 375.47 298.24C376.758 300.068 377.392 302.277 377.27 304.51C377.273 306.543 376.712 308.537 375.65 310.27C374.487 312.147 372.825 313.663 370.85 314.65C368.526 315.817 365.95 316.394 363.35 316.33C360.801 316.364 358.275 315.852 355.94 314.83Z" fill="black"/>
<path d="M423.05 306.58H404.81L401.45 315.88H395.69L410.81 274.3H417.11L432.17 315.88H426.41L423.05 306.58ZM421.49 302.14L413.93 281L406.37 302.12L421.49 302.14Z" fill="black"/>
<path d="M470.15 315.88H464.69L442.69 282.58V315.88H437.23V274H442.69L464.69 307.24V274H470.15V315.88Z" fill="black"/>
<path d="M502.82 276.61C506.052 278.212 508.727 280.749 510.5 283.89C512.344 287.319 513.264 291.168 513.17 295.06C513.268 298.94 512.348 302.777 510.5 306.19C508.734 309.317 506.054 311.829 502.82 313.39C499.126 315.124 495.08 315.977 491 315.88H478V274.06H491C495.086 273.962 499.137 274.836 502.82 276.61ZM503.33 307.09C506.17 304.23 507.59 300.23 507.59 295.09C507.59 289.95 506.16 285.89 503.3 282.91C500.433 279.97 496.333 278.5 491 278.5H483.44V311.38H491C496.38 311.38 500.49 309.95 503.33 307.09Z" fill="black"/>
<path d="M539.24 314.83C537.194 313.957 535.421 312.547 534.11 310.75C532.868 308.995 532.198 306.9 532.19 304.75H538C538.167 306.644 539.034 308.409 540.43 309.7C541.85 311.033 543.92 311.7 546.64 311.7C548.86 311.826 551.048 311.132 552.79 309.75C553.516 309.139 554.095 308.372 554.484 307.506C554.874 306.641 555.064 305.699 555.04 304.75C555.102 303.331 554.631 301.94 553.72 300.85C552.819 299.836 551.687 299.053 550.42 298.57C548.672 297.914 546.889 297.353 545.08 296.89C542.82 296.335 540.603 295.613 538.45 294.73C536.761 293.987 535.293 292.819 534.19 291.34C532.929 289.523 532.307 287.339 532.42 285.13C532.382 282.982 532.988 280.871 534.16 279.07C535.367 277.271 537.064 275.855 539.05 274.99C541.328 273.994 543.794 273.502 546.28 273.55C549.731 273.403 553.129 274.44 555.91 276.49C557.124 277.419 558.129 278.594 558.858 279.938C559.587 281.282 560.024 282.765 560.14 284.29H554.14C553.89 282.603 552.985 281.083 551.62 280.06C549.936 278.778 547.854 278.13 545.74 278.23C543.729 278.142 541.752 278.769 540.16 280C539.438 280.599 538.867 281.359 538.492 282.218C538.116 283.078 537.948 284.014 538 284.95C537.942 286.309 538.404 287.639 539.29 288.67C540.164 289.639 541.253 290.389 542.47 290.86C543.73 291.36 545.5 291.93 547.78 292.57C550.05 293.162 552.276 293.914 554.44 294.82C556.144 295.579 557.63 296.755 558.76 298.24C560.048 300.068 560.682 302.277 560.56 304.51C560.563 306.543 560.002 308.537 558.94 310.27C557.777 312.147 556.115 313.663 554.14 314.65C551.816 315.817 549.24 316.394 546.64 316.33C544.095 316.362 541.572 315.851 539.24 314.83Z" fill="black"/>
<path d="M592.85 274.06V278.5H581.45V315.88H576V278.5H564.53V274.06H592.85Z" fill="black"/>
<path d="M620.09 315.88L610.09 298.78H603.49V315.88H598.03V274.06H611.53C614.286 273.977 617.023 274.532 619.53 275.68C621.558 276.623 623.26 278.147 624.42 280.06C625.46 281.753 626.068 283.675 626.19 285.658C626.312 287.64 625.945 289.623 625.122 291.43C624.298 293.238 623.042 294.815 621.466 296.024C619.889 297.232 618.04 298.034 616.08 298.36L626.58 315.88H620.09ZM603.53 294.39H611.53C614.53 294.39 616.71 293.67 618.19 292.21C618.941 291.439 619.526 290.522 619.908 289.516C620.29 288.509 620.461 287.435 620.41 286.36C620.475 285.299 620.313 284.237 619.936 283.244C619.558 282.251 618.973 281.349 618.22 280.6C616.76 279.267 614.53 278.6 611.53 278.6H603.53V294.39Z" fill="black"/>
<path d="M638.51 278.5V292.5H653.75V297H638.51V311.4H655.51V315.9H633.01V274H655.51V278.5H638.51Z" fill="black"/>
<path d="M688.07 274.06V278.5H676.66V315.88H671.2V278.5H659.74V274.06H688.07Z" fill="black"/>
<path d="M694 283.93C695.768 280.743 698.371 278.098 701.53 276.28C704.75 274.429 708.407 273.476 712.12 273.52C716.338 273.424 720.49 274.572 724.06 276.82C727.487 279.053 730.098 282.337 731.5 286.18H725C723.95 283.785 722.209 281.759 720 280.36C717.632 278.965 714.917 278.271 712.17 278.36C709.417 278.305 706.701 278.996 704.31 280.36C701.98 281.732 700.087 283.736 698.85 286.14C697.472 288.865 696.785 291.887 696.85 294.94C696.789 297.97 697.476 300.969 698.85 303.67C700.084 306.079 701.978 308.087 704.31 309.46C706.701 310.824 709.417 311.515 712.17 311.46C714.916 311.54 717.629 310.847 720 309.46C722.212 308.078 723.955 306.06 725 303.67H731.54C730.13 307.484 727.519 310.738 724.1 312.94C720.523 315.169 716.373 316.306 712.16 316.21C708.45 316.254 704.796 315.312 701.57 313.48C698.414 311.685 695.81 309.06 694.04 305.89C692.226 302.507 691.277 298.728 691.277 294.89C691.277 291.052 692.226 287.273 694.04 283.89L694 283.93Z" fill="black"/>
<path d="M770.32 274.06V315.88H764.86V296.88H743.56V315.88H738.1V274.06H743.56V292.42H764.86V274.06H770.32Z" fill="black"/>
</svg>
