<svg width="1025" height="256" viewBox="0 0 1025 256" fill="none" xmlns="http://www.w3.org/2000/svg">
<path d="M247.066 144.904C244.166 166.568 235.743 187.079 222.638 204.386C209.533 221.694 192.205 235.195 172.383 243.539C152.561 251.884 130.939 254.781 109.676 251.942C88.412 249.102 68.251 240.625 51.2053 227.357" stroke="#010101" stroke-width="6" stroke-linecap="round" stroke-linejoin="round"/>
<path d="M22.6435 60.1323C34.9997 40.6462 52.4317 25.0514 72.9877 15.094C93.5438 5.13669 116.412 1.20982 139.033 3.75308C161.654 6.29635 183.134 15.2094 201.068 29.4942C219.003 43.779 232.683 62.8718 240.578 84.6348" stroke="#010101" stroke-width="6" stroke-linecap="round" stroke-linejoin="round"/>
<path d="M10.6206 171.384C4.12536 153.488 1.73452 134.314 3.63132 115.331" stroke="#010101" stroke-width="6" stroke-linecap="round" stroke-linejoin="round"/>
<path d="M113.577 142.423C113.577 142.423 113.577 156.589 113.577 166.891V171.269C113.577 171.269 113.577 178.481 118.385 178.481" stroke="#8B5CF6" stroke-width="6" stroke-linecap="round" stroke-linejoin="round"/>
<path d="M82.3268 164.058C76.3172 161.654 56.7895 136.973 52.8464 118.99C48.9033 101.008 51.6466 82.2043 60.5631 66.0978C69.4796 49.9912 83.9586 37.6848 101.291 31.4804C118.624 25.2761 137.624 25.5989 154.736 32.3884C171.848 39.178 185.901 51.9692 194.265 68.3693C202.629 84.7694 204.732 103.655 200.181 121.493C195.629 139.332 184.734 154.901 169.535 165.288C154.336 175.676 136.658 180.72 118.385 178.481" stroke="#8B5CF6" stroke-width="6" stroke-linecap="round" stroke-linejoin="round"/>
<path d="M76.3173 159.25C76.3173 159.25 83.5289 166.462 89.5385 166.462C95.5481 166.462 95.5481 161.654 95.5481 161.654" stroke="#8B5CF6" stroke-width="6" stroke-linecap="round" stroke-linejoin="round"/>
<path d="M95.5481 161.654V129.202V128H148.433" stroke="#8B5CF6" stroke-width="6" stroke-linecap="round" stroke-linejoin="round"/>
<path d="M146.728 111.173H115.981V91.9423H168.865" stroke="#8B5CF6" stroke-width="6" stroke-linecap="round" stroke-linejoin="round"/>
<path d="M168.865 72.7115H94.3461V112.375V114.779" stroke="#8B5CF6" stroke-width="6" stroke-linecap="round" stroke-linejoin="round"/>
<path d="M105.949 232.156C104.276 236.286 103.324 237.05 103.121 236.992L98.9669 235.799C99.5763 234.937 100.236 233.668 100.952 231.983C102.038 229.435 103.179 226.068 104.237 222.328C103.792 224.543 102.782 228.551 102.782 228.551C103.981 226.405 105.558 220.394 105.558 220.394C105.412 222.089 103.89 228.83 103.89 228.83C104.695 227.325 106.932 220.75 106.932 220.75C106.607 223.165 105.097 229.216 105.097 229.216C106.136 227.353 108.207 220.615 108.207 220.615L106.214 229.537C106.915 228.227 108.639 223.566 109.354 221.606C108.28 225.648 107.102 229.312 105.949 232.156ZM108.271 196.657L112.425 197.851C112.627 197.909 113.118 199.087 112.739 203.59C112.495 206.494 111.952 210.036 111.175 213.845C111.457 211.617 112.015 207 111.988 205.548L109.689 214.382C109.689 214.382 110.832 207.377 110.754 205.193C110.754 205.193 109.428 211.296 108.637 213.578C108.637 213.578 109.592 206.596 109.56 204.85C109.56 204.85 107.907 211.593 107.28 213.15C107.28 213.15 108.543 206.606 108.567 204.564C108.567 204.564 107.516 208.982 106.908 211.053C107.63 207.293 108.12 203.812 108.305 201.051C108.43 199.197 108.419 197.736 108.271 196.657ZM112.64 196.947L106.852 195.285C107.638 195.51 107.887 197.692 107.657 201.096C107.395 205.022 106.496 210.58 105.055 216.64C103.615 222.702 101.926 228.031 100.407 231.596C99.0928 234.689 97.9045 236.458 97.119 236.232L102.907 237.895C104.602 238.382 108.155 229.612 110.843 218.303C113.531 206.995 114.335 197.434 112.64 196.947Z" fill="#010101" style="mix-blend-mode:darken"/>
<path d="M68.0857 204.433C57.6986 202.414 47.0463 201.263 36.374 200.98C36.2313 200.976 36.0888 200.97 35.9461 200.967C35.8034 200.964 35.6607 200.958 35.518 200.954C35.3207 200.95 35.1236 200.94 34.9263 200.937L35.0368 199.894C35.2446 199.897 35.4522 199.907 35.6601 199.912C35.8027 199.915 35.9453 199.921 36.088 199.925C36.2304 199.929 36.373 199.934 36.5156 199.937C47.208 200.221 57.8803 201.376 68.2867 203.399C78.5951 205.402 88.8254 208.293 98.7568 211.985C98.8903 212.034 99.0246 212.083 99.158 212.133C99.292 212.183 99.4263 212.231 99.5597 212.282C99.8489 212.391 100.141 212.493 100.429 212.603L100.141 213.612C99.8617 213.505 99.5801 213.407 99.3006 213.301C99.1666 213.251 99.0324 213.202 98.8989 213.153C98.7655 213.103 98.6312 213.054 98.4971 213.004C88.5852 209.319 78.3742 206.433 68.0857 204.433ZM34.3745 198.909C34.4956 196.904 34.3682 195.532 33.9897 195.493C33.725 195.465 33.3838 196.093 33.038 197.149C32.6382 198.367 32.2319 200.154 31.9276 202.159C31.6234 204.165 31.4833 205.979 31.507 207.241C31.5267 208.335 31.6696 209.014 31.9343 209.042C32.3634 209.087 32.9917 207.411 33.5185 204.987C33.975 204.995 34.432 205 34.8884 205.01C34.1649 209.25 33.2839 213.194 32.3566 216.312C31.0232 220.793 30.1765 221.68 29.9948 221.827C29.9948 221.827 29.9947 221.827 29.9947 221.827C29.8763 221.666 29.4228 220.826 29.36 217.336C29.2864 213.42 29.7501 207.839 30.6322 202.024C31.5144 196.209 32.7321 190.707 33.9736 186.926C35.0764 183.559 35.7667 182.839 35.9293 182.708C35.9293 182.708 35.9294 182.708 35.9295 182.708C36.0618 182.887 36.6171 183.92 36.5703 188.537C36.5403 191.476 36.2656 195.081 35.7855 198.935C35.3153 198.925 34.8449 198.917 34.3745 198.909ZM96.592 234.771L96.5914 234.77C96.4781 234.567 96.0253 233.427 96.4679 228.772C96.7765 225.522 97.4412 221.516 98.3644 217.296C98.7908 217.456 99.2159 217.62 99.6416 217.784C99.2137 220.255 99.1647 222.069 99.5821 222.189C99.8381 222.263 100.225 221.687 100.653 220.68C101.147 219.519 101.697 217.784 102.166 215.811C102.636 213.837 102.928 212.028 103.013 210.749C103.089 209.641 103.007 208.93 102.751 208.857C102.389 208.753 101.765 209.954 101.132 211.831C100.691 211.661 100.251 211.493 99.8099 211.328C100.805 207.592 101.895 204.166 102.964 201.441C104.65 197.143 105.552 196.393 105.742 196.276C105.844 196.459 106.214 197.385 105.975 200.92C105.71 204.891 104.778 210.449 103.418 216.17C102.058 221.892 100.397 227.241 98.8623 230.844C97.497 234.057 96.7617 234.666 96.592 234.771ZM104.237 216.405C105.678 210.344 106.577 204.788 106.839 200.861C107.068 197.457 106.819 195.275 106.034 195.049C104.524 194.616 101.542 201.525 99.0076 211.029C78.9517 203.586 58.0297 199.537 36.6412 198.958C37.8584 189.174 37.6828 181.624 36.1185 181.461C35.3052 181.376 34.2573 183.305 33.1953 186.548C31.9675 190.287 30.7195 195.776 29.7852 201.935C28.8507 208.095 28.4202 213.669 28.4931 217.543C28.5535 220.903 28.9922 222.989 29.8055 223.074C31.4334 223.244 33.9933 215.358 35.7469 205.033C54.8884 205.531 73.6521 208.851 91.7429 214.935C91.8109 214.958 91.8788 214.981 91.9474 215.004C93.8253 215.637 95.696 216.302 97.5593 216.996C95.3092 227.248 94.7245 235.545 96.3001 235.998C97.0863 236.223 98.274 234.454 99.5885 231.361C101.107 227.797 102.796 222.466 104.237 216.405Z" fill="#010101" style="mix-blend-mode:darken"/>
<path d="M112.631 234.075C110.957 238.205 110.004 238.97 109.803 238.912L105.648 237.718C106.258 236.857 106.917 235.588 107.633 233.903C108.719 231.355 109.86 227.987 110.918 224.247C110.474 226.462 109.463 230.471 109.463 230.471C110.662 228.326 112.24 222.314 112.24 222.314C112.093 224.009 110.57 230.751 110.57 230.751C111.376 229.245 113.613 222.669 113.613 222.669C113.288 225.085 111.778 231.136 111.778 231.136C112.817 229.273 114.889 222.534 114.889 222.534L112.895 231.456C113.596 230.146 115.32 225.485 116.035 223.525C114.962 227.568 113.783 231.232 112.631 234.075ZM114.952 198.577L119.107 199.771C119.308 199.828 119.799 201.007 119.42 205.509C119.177 208.413 118.633 211.956 117.856 215.765C118.138 213.536 118.696 208.92 118.669 207.467L116.37 216.301C116.37 216.301 117.513 209.296 117.436 207.113C117.436 207.113 116.109 213.216 115.318 215.498C115.318 215.498 116.274 208.516 116.241 206.769C116.241 206.769 114.588 213.513 113.961 215.069C113.961 215.069 115.224 208.526 115.248 206.484C115.248 206.484 114.198 210.902 113.589 212.972C114.311 209.213 114.801 205.732 114.986 202.971C115.111 201.116 115.1 199.656 114.952 198.577ZM117.525 220.223C117.885 218.707 118.21 217.224 118.502 215.788C120.382 206.516 120.788 199.289 119.321 198.867L113.533 197.204C114.319 197.43 114.568 199.612 114.338 203.016C114.076 206.942 113.177 212.499 111.737 218.56C110.296 224.621 108.607 229.951 107.088 233.516C105.774 236.609 104.586 238.378 103.8 238.152L109.588 239.815C111.056 240.236 113.916 233.715 116.403 224.616C116.788 223.208 117.164 221.739 117.525 220.223Z" fill="#010101" style="mix-blend-mode:darken"/>
<path d="M125.301 221.616C125.437 221.002 125.033 220.871 125.033 220.871L125.112 219.567C125.845 219.997 125.301 221.616 125.301 221.616ZM124.715 217.977L122.793 226.049C123.877 226.138 124.982 225.077 125.355 223.512L125.819 221.564C126.191 219.999 125.701 218.481 124.715 217.977Z" fill="#010101" style="mix-blend-mode:darken"/>
<path d="M123.944 217.721L123.151 217.494C122.882 218.818 122.582 220.185 122.25 221.582C121.916 222.979 121.569 224.333 121.213 225.631L122.006 225.858C122.321 224.548 122.648 223.188 122.98 221.792C123.313 220.394 123.635 219.034 123.944 217.721Z" fill="#010101" style="mix-blend-mode:darken"/>
<path d="M124.585 217.917C124.534 217.897 124.484 217.877 124.432 217.862L124.079 217.76L122.141 225.897L122.494 225.998C122.547 226.013 122.599 226.022 122.653 226.031C122.968 224.725 123.292 223.369 123.624 221.976C123.956 220.583 124.277 219.226 124.585 217.917Z" fill="#010101" style="mix-blend-mode:darken"/>
<path d="M122.004 217.886C122.279 216.127 122.834 212.486 122.889 211.353L121.1 218.394C121.1 218.394 122.117 212.851 122.178 211.148C122.178 211.148 121.097 215.997 120.519 217.827C120.519 217.827 121.424 212.314 121.49 210.951C121.49 210.951 120.186 216.319 119.74 217.573C119.74 217.573 120.804 212.383 120.918 210.786C120.918 210.786 120.082 214.302 119.622 215.955C120.231 212.974 120.691 210.224 120.935 208.055C121.099 206.599 121.165 205.457 121.13 204.622L123.523 205.31C123.64 205.344 123.872 206.236 123.428 209.777C123.142 212.062 122.648 214.864 122.004 217.886ZM118.025 232.508C116.836 235.835 116.236 236.489 116.12 236.455L113.726 235.768C114.129 235.058 114.58 234.027 115.085 232.668C115.85 230.613 116.688 227.913 117.495 224.926C117.124 226.684 116.332 229.878 116.332 229.878C117.144 228.13 118.369 223.337 118.369 223.337C118.2 224.671 116.972 230.03 116.972 230.03C117.521 228.806 119.163 223.534 119.163 223.534C118.852 225.441 117.666 230.26 117.666 230.26C118.37 228.743 119.922 223.353 119.922 223.353L118.309 230.445C118.787 229.38 120.032 225.635 120.55 224.06C119.719 227.284 118.844 230.217 118.025 232.508ZM123.694 204.592L120.36 203.634C120.812 203.764 120.853 205.454 120.551 208.129C120.204 211.214 119.402 215.61 118.256 220.433C117.109 225.256 115.852 229.522 114.782 232.398C113.855 234.894 113.068 236.346 112.615 236.216L115.949 237.174C116.794 237.417 118.802 232.15 120.714 224.891C121.01 223.767 121.303 222.597 121.59 221.391C121.877 220.184 122.142 219.006 122.384 217.866C123.946 210.507 124.539 204.834 123.694 204.592Z" fill="#010101" style="mix-blend-mode:darken"/>
<path d="M23.108 221.441C22.8992 221.419 22.3022 220.354 22.2976 215.897C22.2945 212.829 22.5736 208.99 23.0925 204.84C23.0211 206.926 22.8739 211.893 23.033 213.37L24.5266 204.351C24.5266 204.351 23.9233 211.374 24.1894 213.491C24.1894 213.491 25.0556 207.315 25.6585 204.954C25.6585 204.954 25.2701 211.888 25.453 213.585C25.453 213.585 26.5662 206.765 27.0658 205.138C27.0658 205.138 26.2769 211.303 26.5847 213.742C26.5847 213.742 27.149 209.647 27.5665 207.426C27.147 211.29 26.9435 214.84 26.9955 217.609C27.0285 219.44 27.1646 220.864 27.4075 221.89L23.108 221.441ZM26.7016 186.868C28.037 182.551 28.9336 181.642 29.1424 181.664L33.4418 182.114C32.9 183.058 32.3429 184.409 31.7645 186.175C30.9011 188.804 30.0523 192.216 29.313 195.972C29.5244 193.824 30.2055 189.334 30.2055 189.334C29.4632 191.236 28.1827 197.776 28.1827 197.776C28.1844 196.098 29.1775 189.227 29.1775 189.227C28.4932 190.834 26.7641 197.666 26.7641 197.666C26.8854 195.253 27.9416 189.098 27.9416 189.098C27.0516 191.094 25.4876 198.017 25.4876 198.017L26.6651 188.965C26.096 190.301 24.884 194.791 24.3108 196.963C25.0173 193.14 25.8404 189.652 26.7016 186.868ZM27.6458 217.455C27.5731 213.58 28.0034 208.006 28.9379 201.846C29.8723 195.687 31.1204 190.198 32.348 186.459C33.41 183.217 34.4579 181.287 35.2712 181.372L29.2817 180.746C27.528 180.563 24.6918 189.728 22.9484 201.22C21.2049 212.713 21.2152 222.175 22.9689 222.358L28.9584 222.985C28.145 222.9 27.7062 220.815 27.6458 217.455Z" fill="#010101" style="mix-blend-mode:darken"/>
<path d="M16.1944 220.718C15.9856 220.696 15.3885 219.631 15.384 215.175C15.3809 212.106 15.66 208.268 16.1788 204.118C16.1075 206.203 15.9603 211.17 16.1194 212.647L17.613 203.628C17.613 203.628 17.0096 210.652 17.2756 212.769C17.2756 212.769 18.1419 206.592 18.7448 204.231C18.7448 204.231 18.3564 211.166 18.5392 212.863C18.5392 212.863 19.6526 206.042 20.1522 204.416C20.1522 204.416 19.3631 210.581 19.671 213.019C19.671 213.019 20.2353 208.924 20.6528 206.703C20.2334 210.568 20.0298 214.118 20.0819 216.886C20.1148 218.717 20.251 220.141 20.4938 221.168L16.1944 220.718ZM19.788 186.145C21.1234 181.829 22.02 180.919 22.2288 180.942L26.5282 181.391C25.9864 182.335 25.4293 183.686 24.8508 185.452C23.9875 188.081 23.1386 191.493 22.3994 195.249C22.6107 193.101 23.2919 188.612 23.2919 188.612C22.5495 190.514 21.269 197.054 21.269 197.054C21.2708 195.376 22.2638 188.504 22.2638 188.504C21.5795 190.111 19.8505 196.943 19.8505 196.943C19.9718 194.531 21.0279 188.375 21.0279 188.375C20.138 190.371 18.5739 197.294 18.5739 197.294L19.7515 188.242C19.1824 189.578 17.9704 194.068 17.3972 196.24C18.1037 192.417 18.9268 188.929 19.788 186.145ZM20.7321 216.732C20.6594 212.857 21.0898 207.283 22.0243 201.124C22.9586 194.965 24.2067 189.475 25.4344 185.737C26.4964 182.494 27.5444 180.564 28.3576 180.65L22.3681 180.023C20.8495 179.865 18.5197 186.718 16.7902 196.02C16.5224 197.46 16.2686 198.957 16.0348 200.497C15.801 202.038 15.5998 203.541 15.4292 204.991C14.3263 214.359 14.5367 221.477 16.0551 221.636L22.0446 222.263C21.2314 222.177 20.7926 220.092 20.7321 216.732Z" fill="#010101" style="mix-blend-mode:darken"/>
<path d="M8.83034 198.286C8.83034 198.286 8.40624 198.256 8.30291 198.877C8.30291 198.877 8.40463 197.172 9.24507 197.047L8.83034 198.286ZM7.84208 198.635L7.54258 200.614C7.30191 202.205 7.9289 203.603 8.9675 203.926L10.2089 195.722C9.10642 195.82 8.08275 197.044 7.84208 198.635Z" fill="#010101" style="mix-blend-mode:darken"/>
<path d="M10.5152 195.721C10.4607 195.716 10.4064 195.716 10.3522 195.715C10.1475 197.044 9.93686 198.422 9.72257 199.839C9.50844 201.254 9.30171 202.634 9.10453 203.962C9.157 203.974 9.20958 203.985 9.26393 203.991L9.62882 204.03L10.8801 195.759L10.5152 195.721Z" fill="#010101" style="mix-blend-mode:darken"/>
<path d="M11.8402 195.86L11.0201 195.774C10.8148 197.106 10.6037 198.488 10.3888 199.909C10.174 201.328 9.96683 202.711 9.76882 204.044L10.5889 204.131C10.7453 202.793 10.93 201.408 11.1449 199.988C11.3596 198.568 11.5933 197.188 11.8402 195.86Z" fill="#010101" style="mix-blend-mode:darken"/>
<path d="M11.2571 216.074C11.1368 216.062 10.8256 215.231 10.9691 211.701C11.0681 209.27 11.3557 206.223 11.7925 202.922C11.6826 204.577 11.4344 208.515 11.4782 209.682L12.6397 202.502C12.6397 202.502 12.0596 208.081 12.1445 209.751C12.1445 209.751 12.849 204.839 13.2759 202.954C13.2759 202.954 12.8234 208.457 12.8736 209.798C12.8736 209.798 13.7425 204.369 14.0853 203.069C14.0853 203.069 13.4258 207.972 13.5243 209.896C13.5243 209.896 13.9857 206.638 14.3005 204.869C13.9305 207.941 13.6962 210.758 13.6355 212.951C13.5946 214.4 13.6269 215.525 13.7339 216.334L11.2571 216.074ZM14.4736 188.601C15.3889 185.152 15.9383 184.411 16.0587 184.424L18.5356 184.682C18.1906 185.443 17.8233 186.526 17.4303 187.938C16.8438 190.04 16.2399 192.763 15.6883 195.755C15.8811 194.05 16.4232 190.477 16.4232 190.477C15.9306 192.001 14.974 197.211 14.974 197.211C15.0301 195.881 15.8308 190.415 15.8308 190.415C15.3816 191.704 14.1556 197.155 14.1556 197.155C14.3049 195.242 15.119 190.34 15.119 190.34C14.5377 191.942 13.4043 197.462 13.4043 197.462L14.3835 190.264C14.0099 191.336 13.1604 194.919 12.7569 196.653C13.2916 193.609 13.8831 190.827 14.4736 188.601ZM14.0174 212.814C14.1023 209.746 14.5347 205.32 15.2782 200.418C16.0217 195.517 16.9249 191.141 17.7591 188.15C18.4809 185.557 19.1515 184.005 19.62 184.054L16.1694 183.694C15.2948 183.602 13.7198 189.084 12.4124 196.493C12.2099 197.64 12.0137 198.832 11.8278 200.058C11.6418 201.283 11.4758 202.479 11.3294 203.632C10.3832 211.078 10.2715 216.713 11.1462 216.805L14.5967 217.166C14.1282 217.117 13.9422 215.475 14.0174 212.814Z" fill="#010101" style="mix-blend-mode:darken"/>
<path d="M334.7 241.53L823.63 241.8L932.93 241.67C942.343 241.737 951.75 241.707 961.15 241.58C967.15 241.49 973.24 241.09 979.15 241.38C981.033 241.402 982.899 241.74 984.67 242.38C985.56 242.7 986.375 243.199 987.063 243.848C987.751 244.497 988.298 245.28 988.67 246.15C989.54 248.45 988.8 250.25 987.91 252.42C987.62 252.75 987.32 253.07 987.01 253.42C985.54 254.92 984.86 255.42 982.76 255.55C975.02 255.97 967.09 255.61 959.34 255.55H915.1L774.17 255.61H334.86C334.7 250.92 334.77 246.2 334.7 241.53Z" fill="#8B5CF6"/>
<path d="M471.79 37.26C473.339 37.4401 474.848 37.869 476.26 38.53C480.87 40.6 482.89 43.85 484.64 48.34C483.2 51.14 481.27 53.82 479.57 56.47C485.72 51.79 490.24 44.53 497.2 40.9C498.168 40.3109 499.254 39.942 500.381 39.8193C501.508 39.6966 502.648 39.8231 503.72 40.19C507.56 41.69 509.84 46.19 511.28 49.83C513.4 46.83 515.78 43.5 518.89 41.47C520.44 40.47 523.13 39.16 525.02 39.89C527.32 40.78 529.57 43.89 530.54 46.09C534.73 55.41 524.39 71.26 520.9 80.33C518.76 85.89 515.5 95.69 518.32 101.33C518.603 101.931 519.022 102.458 519.542 102.871C520.062 103.283 520.671 103.571 521.32 103.71C527.02 105.03 534.32 100.03 538.77 97C535.77 102.08 532.1 106.23 526.77 108.86C522.59 110.86 517.07 111.86 512.61 110.17C511.23 109.601 509.988 108.744 508.967 107.656C507.946 106.567 507.17 105.273 506.69 103.86C500.88 89.08 512.5 68.77 518.55 55.67C515.679 58.3758 512.984 61.2616 510.48 64.31C499.8 76.58 488.85 92.66 483.42 108.04C480.67 106.04 478.47 103.89 477.2 100.64C472.08 87.59 488.96 66.21 494.15 54.42L494.44 53.74C484.06 63.39 460.74 90.12 454.81 102.09C453.48 104.69 452.758 107.56 452.7 110.48V111.22L452.11 111.35C449.683 110.191 447.798 108.137 446.85 105.62C440.63 89.82 464.85 53.94 471.53 38.01L471.79 37.26Z" fill="#232021"/>
<path d="M732 7.73998C737.78 7.50998 744 7.50998 749.71 8.73998C755.42 9.96998 758.99 12.29 762.15 17.13C762.407 19.6408 762.313 22.1752 761.87 24.66C760.87 25.66 759.63 24.6 758.35 24.12C752.129 21.7157 745.486 20.5933 738.82 20.82C719.91 20.93 701.11 24.6 682.54 27.76C676.27 38.62 668.69 50.35 664.68 62.28C670.084 61.4741 675.537 61.0464 681 61C683.233 62.8092 685.246 64.8732 687 67.15C677.86 68.15 669 70.83 659.78 71.58C653.2 86.41 649.45 103.13 646.85 119.08C646.59 121.57 646.73 125.3 645.33 127.31C644.887 127.588 644.384 127.758 643.863 127.806C643.342 127.855 642.817 127.781 642.33 127.59C638.99 126.66 635.47 122.18 634.04 119.21C630.04 111 638.29 83.55 641.49 74.21C640.92 73.86 640.34 73.5 639.78 73.12C637.57 71.68 636.42 70.61 635.87 68C635.958 67.2303 636.283 66.507 636.8 65.93C638.65 63.93 642.14 64.38 644.63 64.31C650.95 51.92 656.99 39.44 664.18 27.52C661.04 28.52 657.18 29.44 654.34 31.19C650.42 33.64 649.69 37.19 648.67 41.38C646.21 38.22 643.85 34.61 643.38 30.53C643.224 29.6514 643.261 28.7496 643.487 27.8865C643.713 27.0233 644.124 26.2194 644.69 25.53C651.22 18.31 696.18 11.07 707.43 9.63998C715.67 8.62998 723.83 8.09998 732 7.73998Z" fill="#232021"/>
<path d="M879.16 12.49C880.083 12.5168 881.002 12.6137 881.91 12.78C883.52 13.13 885.64 14.21 886.36 15.78C887.96 19.26 882.55 27.73 881.24 31.5C886.04 31.41 890.99 31.28 895.78 31.6C897.97 31.74 900.3 32.04 901.78 33.73L901.42 34.66C895.56 39.24 884.56 39.27 877.33 39.72C870.47 53.34 860.95 76.31 858.73 91.33C858.25 94.63 857.83 99.33 860.18 102C862.08 104.17 868.77 102.53 871.58 102.79L872.03 103.36C871.894 104.256 871.551 105.109 871.03 105.85C869.03 108.85 863.56 110.33 860.19 110.72C856.39 111.17 852.03 110.82 848.97 108.3C844.97 104.99 844.36 99.68 843.82 94.86C839.98 98.5478 835.771 101.832 831.26 104.66C825.04 108.5 817.76 110.88 810.45 108.97C808.16 108.366 806.022 107.287 804.175 105.804C802.329 104.321 800.814 102.466 799.73 100.36C795.17 91.95 795.6 82.23 798.38 73.36C802.48 60.22 810.87 47.49 823.27 41C827.4 39.36 831.59 38.34 836.02 39.4C837.922 39.8547 839.712 40.6921 841.28 41.8612C842.848 43.0303 844.161 44.5066 845.14 46.2C847.82 50.81 847.9 56.62 846.41 61.63C845.867 63.7662 844.886 65.7658 843.527 67.5014C842.169 69.2369 840.463 70.6703 838.52 71.71C836.86 70.14 835.35 68.4 833.8 66.71C835.8 62.16 838.46 57.04 838.89 52.06C839.054 51.2077 839.018 50.3289 838.786 49.4927C838.553 48.6564 838.13 47.8854 837.55 47.24C836.893 46.9079 836.148 46.789 835.42 46.9C830.42 47.6 825.34 54.29 822.59 58.17C816 67.45 809.44 81.51 811.59 93.17C812.08 95.78 813.2 99.28 815.74 100.63C818.28 101.98 821.94 101.04 824.42 100.14C830.97 97.77 840.48 91.45 844.21 85.53C847.39 80.53 849.32 69.96 851.55 63.87C854.62 55.51 858.38 47.44 862.14 39.38C857.23 39.15 850.71 39.47 846.46 36.78C844.22 35.36 843.1 32.3 842.46 29.78C842.176 28.9619 842.07 28.0926 842.15 27.2303C842.229 26.368 842.492 25.5326 842.92 24.78L844.06 24.52C845.5 26.46 847.19 29.25 849.11 30.67C852.78 33.39 861.37 31.96 865.66 31.59C869.13 25.75 873.35 16.15 879.16 12.49Z" fill="#232021"/>
<path d="M589.61 11.2C595.08 10.73 601.19 12.12 605.45 15.71C607.221 17.2076 608.667 19.052 609.699 21.1295C610.731 23.2069 611.327 25.4736 611.45 27.79C611.669 33.2756 609.723 38.6274 606.03 42.69C605.035 43.8268 603.816 44.7464 602.45 45.3916C601.084 46.0368 599.6 46.3937 598.09 46.44C593.15 46.38 589.85 42.97 586.67 39.66C589.03 38.1607 591.276 36.4895 593.39 34.66C596.16 32.12 599.67 27.83 599.39 23.78C599.28 22.36 598.85 22.04 597.94 21.05C596.749 20.4892 595.432 20.2512 594.12 20.36C587.12 20.91 578.95 27.27 574.55 32.55C571.67 36 569.31 40.31 569.83 44.94C570.95 54.94 585.13 59.94 592.19 65.43L592.7 65.83C587.42 68.67 581.97 71.19 576.7 74.05C569.48 77.97 559.76 83.54 557.49 92.05C557.084 93.5087 556.975 95.0344 557.171 96.5359C557.367 98.0375 557.863 99.4843 558.63 100.79C560.76 104.19 564.39 105.31 568.05 106.28C581.54 103.01 585.1 89.14 593 79.34C596.135 75.3032 599.733 71.6483 603.72 68.45C606.07 66.63 610.56 63.13 613.66 63.96C615.85 64.55 616.84 67.16 617.82 68.96C615.16 73.85 611.82 78.48 608.82 83.19C601.82 94.31 594.55 109.04 582.11 114.9C578.318 116.613 574.224 117.562 570.065 117.69C565.905 117.819 561.761 117.126 557.87 115.65C551.24 113.17 545.04 108.3 542.23 101.65C541.228 99.1795 540.746 96.5293 540.813 93.8644C540.88 91.1995 541.495 88.5769 542.62 86.16C547.69 74.42 560.39 69 571.43 64.39C569.08 62.83 566.67 61.28 564.43 59.56C559.43 55.81 555.6 51.14 554.83 44.76C554.06 38.38 557.06 32 561 27.07C568.121 18.2742 578.378 12.5848 589.61 11.2Z" fill="#8B5CF6"/>
<path d="M396.35 7.73C405.62 7.16 417.87 6.73 426.35 11.01C431.17 13.45 433.35 16.68 435.1 21.61C413.31 16.9 387.51 20.9 365.49 23.61C355.55 35.31 346.37 46.82 339.13 60.42C342.06 60.42 345.82 60.2 348.51 61.42C352.17 63.09 353.09 66.55 354.4 70.03C347.4 69.95 340.55 70.88 333.59 71.78C326.43 86.86 321.19 103.91 326.38 120.28C324.778 120.556 323.131 120.372 321.63 119.75C316.63 117.83 311.83 112.83 309.63 108.03C304.92 97.81 310.93 85.48 314.53 75.75C313.418 75.4969 312.33 75.1456 311.28 74.7C309.83 74.01 307.74 72.08 307.36 70.47C307.267 69.9333 307.285 69.3832 307.412 68.8536C307.539 68.324 307.773 67.826 308.1 67.39C310.38 63.58 315.51 63.01 319.42 62.19C325.67 49.65 333.42 38.58 341.42 27.12C336.92 28.71 330.59 29.68 326.98 32.85C325.42 34.21 324.08 35.91 322.57 37.35L321.65 37.22C319.846 35.0346 318.747 32.3531 318.5 29.53C318.41 27.8198 318.995 26.1427 320.13 24.86C326.33 17.43 365.64 10.86 376.13 9.45C382.84 8.59 389.57 8.11 396.35 7.73Z" fill="#232021"/>
<path d="M409.46 57.85C408.78 51.85 406.54 44.39 401.78 40.45C398.6 37.83 395.78 37.38 391.72 37.59C378.09 41.18 368.64 52.72 361.8 64.47C356.31 73.91 352.22 86.36 355.09 97.28C355.72 99.8413 356.869 102.246 358.465 104.346C360.061 106.446 362.071 108.197 364.37 109.49C367.041 110.981 369.981 111.929 373.02 112.28C382.67 111.28 390.33 106.79 396.4 99.28C404.86 88.72 411 71.42 409.46 57.85ZM390.34 92.58C386.53 96.7 382.81 98.89 377.16 99.1C376.007 98.6917 374.956 98.0375 374.08 97.1828C373.205 96.3281 372.526 95.2933 372.09 94.15C369.64 88.32 372.6 79.89 374.97 74.38C379.36 64.2 387 52.17 397.72 48C398.53 48.1783 399.295 48.5184 399.97 49C402.03 50.47 402.81 53.89 402.97 56.24C403.75 67.89 398.31 84 390.34 92.58Z" fill="#232021"/>
<path d="M957.69 57.61C957.52 52.31 956.21 46.32 952.12 42.61C950.665 41.3505 948.971 40.3975 947.14 39.8081C945.308 39.2187 943.376 39.0051 941.46 39.18C930.24 40.35 921.19 48.06 914.34 56.58C906.34 66.58 901.59 80.1 903.12 92.96C903.79 98.55 906.02 103.56 910.53 107.09C913.206 109.15 916.331 110.548 919.65 111.17C928.47 110.99 934.78 107.33 940.75 101.1C951.34 90.09 958.21 72.94 957.69 57.61ZM938 90.45C934.63 94.6 931.16 97.33 925.74 97.91C924.719 97.6333 923.762 97.1568 922.926 96.5079C922.09 95.8591 921.391 95.0508 920.87 94.13C918.25 89.97 919.07 84.34 920.24 79.8C923.37 67.62 932.67 54.97 943.44 48.5C944.59 48.3367 945.762 48.4498 946.86 48.83C948.66 49.78 949.36 52.54 949.61 54.38C951.15 65.62 945 81.81 938 90.45Z" fill="#232021"/>
<path d="M761.12 37.23C765.46 38.67 769.01 42.15 771.39 45.94C769.39 50.89 766.39 55.55 764.01 60.36C769.28 54.69 779.79 41.25 787.83 41C790.39 40.91 795.24 43.91 796.83 45.73C798.054 47.0498 798.739 48.7802 798.75 50.58C798.28 61.49 783.75 80.12 783.67 95.92C783.67 104.08 791.35 101.38 795.18 105.03C795.18 105.56 795.18 105.88 795.18 106.38C795.04 108.38 794.18 110.88 792.41 112.07C790.41 113.42 787.9 112.71 785.77 112.16C780.35 110.74 774.61 107.85 771.77 102.77C768.26 96.4 770.67 87.3 772.54 80.77C775.783 71.381 780.4 62.5247 786.24 54.49C779.55 58.84 774.24 64.26 769.1 70.34C761.64 79.2 751.89 92.16 750 104C749.48 107.25 750.07 111 750.33 114.29C747.177 113.402 744.221 111.922 741.62 109.93C740.2 108.92 738.999 107.633 738.09 106.146C737.181 104.659 736.582 103.004 736.33 101.28C734.55 86 751.86 49.6 761.12 37.23Z" fill="#232021"/>
<path d="M999.86 58.79C987.41 68.11 975.1 86.3 967.94 100.32C966.34 103.45 966.42 107.42 964.68 110.4C963.14 110.98 960.86 110.46 959.36 109.89C958.438 109.497 957.603 108.925 956.902 108.208C956.202 107.49 955.651 106.641 955.28 105.71C953.61 101.84 953.97 96.16 954.83 92.08C958.5 74.81 969.96 54.17 976.72 37.57C978.368 36.9555 980.19 36.9948 981.81 37.68C982.71 37.993 983.532 38.495 984.222 39.1521C984.912 39.8093 985.454 40.6064 985.81 41.49C989.49 50.41 981.48 63.29 978.03 71.22C983.63 63.67 997.6 42.95 1006.17 40.86C1008.51 40.3349 1010.96 40.744 1013 42C1026.33 50.61 999.32 84.57 1002.7 97.65C1002.86 98.4236 1003.2 99.1516 1003.67 99.7824C1004.15 100.413 1004.76 100.931 1005.46 101.3C1008.07 102.7 1011.39 101.6 1013.97 100.79C1015.32 101.17 1016.4 101.19 1017.26 102.4C1017.36 102.564 1017.46 102.735 1017.54 102.91C1015.54 105.606 1012.89 107.761 1009.85 109.18C1005.85 111.09 1001.48 112.18 997.23 110.43C995.625 109.836 994.158 108.921 992.92 107.739C991.682 106.558 990.698 105.136 990.03 103.56C984.86 91.1 995.14 70.55 999.86 58.79Z" fill="#232021"/>
<path d="M701.89 38.21C702.327 38.2916 702.758 38.4019 703.18 38.54C707.69 40.13 711.35 44.73 713.43 48.83C705.75 62.83 697.28 75.95 693.52 91.77C692.84 94.62 691.89 99.21 693.92 101.7C694.18 102.121 694.563 102.45 695.018 102.644C695.473 102.837 695.977 102.885 696.46 102.78C709.05 96.13 726.4 60.29 733.65 46.85C737.965 48.8842 741.787 51.8323 744.85 55.49C740.564 62.3572 736.749 69.5069 733.43 76.89C730.68 82.5 725.28 94.25 727.21 100.6C728.36 104.37 733.54 106.07 736.78 107.7C735.324 110.276 733.63 112.71 731.72 114.97C729.464 114.032 727.273 112.946 725.16 111.72C719.49 108.35 715.16 104.58 713.42 97.96C709.575 104.066 705.115 109.762 700.11 114.96C696.837 114.344 693.697 113.163 690.83 111.47C686.57 109.12 680.83 105.25 679.59 100.32C676.83 89.4 687.78 64.62 692.79 54.56C695.55 49 698.83 43.61 701.89 38.21Z" fill="#232021"/>
<path d="M427.33 35.79C429.713 36.5375 431.917 37.764 433.809 39.3942C435.7 41.0244 437.239 43.0239 438.33 45.27C435.783 50.93 433.197 56.57 430.57 62.19C437.1 54.41 444.57 47.37 451.77 40.19C456.212 41.9859 460.034 45.0369 462.77 48.97C451.6 57.27 441.48 67.02 430.88 76.04C422.48 82.5295 416.904 92.0059 415.31 102.5C414.79 105.82 414.99 109.45 413.72 112.58C413 112.76 413.19 112.86 412.64 112.58C409.299 110.828 406.726 107.899 405.42 104.36C400.75 90.64 421 49.3 427.33 35.79Z" fill="#232021"/>
<path d="M898.24 43.86C900.98 45.18 904.1 50.07 905.44 52.76C899.59 65.53 889.14 83.82 888.96 97.83C888.9 102.46 892.37 107.06 892.06 110.75C890.8 112.13 889.58 112.22 887.81 112.75C885.199 112.074 882.845 110.644 881.04 108.64C876.3 103.03 876.12 94.55 876.93 87.58C878.59 73.22 886.69 53.06 898.24 43.86Z" fill="#232021"/>
<path d="M909.58 21.06C910.742 20.857 911.925 20.8032 913.1 20.9C914.055 21.0176 914.974 21.3397 915.793 21.8443C916.613 22.3489 917.314 23.0241 917.85 23.8241C918.385 24.624 918.741 25.5298 918.895 26.4799C919.049 27.43 918.996 28.4021 918.74 29.33C918.02 33.33 915.66 36.21 912.45 38.47C911.443 38.6427 910.421 38.7064 909.4 38.66C908.473 38.5947 907.571 38.3368 906.749 37.9029C905.928 37.469 905.206 36.8686 904.63 36.14C904.014 35.1809 903.607 34.103 903.435 32.9763C903.262 31.8496 903.329 30.6993 903.63 29.6C904.414 26.0818 906.551 23.0138 909.58 21.06Z" fill="#232021"/>
<path d="M1013.92 100.78C1017.56 98.4068 1021.05 95.8084 1024.37 93C1022.57 96.6267 1020.25 99.9718 1017.49 102.93C1017.41 102.755 1017.31 102.584 1017.21 102.42C1016.35 101.18 1015.27 101.16 1013.92 100.78Z" fill="#232021"/>
<path d="M387.09 160.06V164.5H368.91V178.6H383.67V183H368.91V201.84H363.45V160.06H387.09Z" fill="black"/>
<path d="M397.65 160.06V201.88H392.19V160.06H397.65Z" fill="black"/>
<path d="M431.19 160.06V164.5H419.79V201.88H414.33V164.5H402.87V160.06H431.19Z" fill="black"/>
<path d="M469.29 201.88H463.83L441.83 168.58V201.88H436.37V160H441.83L463.83 193.24V160H469.29V201.88Z" fill="black"/>
<path d="M482.55 164.5V178.5H497.79V183H482.55V197.4H499.55V201.9H477.05V160H499.55V164.5H482.55Z" fill="black"/>
<path d="M512.22 200.83C510.174 199.957 508.401 198.547 507.09 196.75C505.848 194.995 505.178 192.9 505.17 190.75H511C511.167 192.644 512.034 194.409 513.43 195.7C514.85 197.033 516.92 197.7 519.64 197.7C521.86 197.826 524.048 197.132 525.79 195.75C526.516 195.139 527.095 194.372 527.484 193.506C527.874 192.641 528.064 191.699 528.04 190.75C528.102 189.331 527.631 187.94 526.72 186.85C525.819 185.836 524.687 185.053 523.42 184.57C521.672 183.914 519.889 183.353 518.08 182.89C515.82 182.335 513.603 181.613 511.45 180.73C509.761 179.987 508.293 178.819 507.19 177.34C505.93 175.523 505.307 173.339 505.42 171.13C505.382 168.982 505.988 166.871 507.16 165.07C508.355 163.282 510.033 161.87 512 161C514.278 160.004 516.744 159.512 519.23 159.56C522.681 159.413 526.079 160.45 528.86 162.5C530.074 163.429 531.079 164.604 531.808 165.948C532.537 167.292 532.974 168.775 533.09 170.3H527.09C526.84 168.613 525.935 167.093 524.57 166.07C522.886 164.788 520.804 164.14 518.69 164.24C516.679 164.152 514.703 164.779 513.11 166.01C512.388 166.609 511.817 167.369 511.442 168.228C511.066 169.088 510.898 170.023 510.95 170.96C510.893 172.319 511.354 173.649 512.24 174.68C513.114 175.649 514.203 176.399 515.42 176.87C516.68 177.37 518.45 177.94 520.73 178.58C523 179.172 525.226 179.924 527.39 180.83C529.094 181.589 530.58 182.765 531.71 184.25C532.998 186.078 533.632 188.287 533.51 190.52C533.513 192.553 532.952 194.547 531.89 196.28C530.727 198.157 529.065 199.673 527.09 200.66C524.766 201.827 522.19 202.404 519.59 202.34C517.054 202.365 514.542 201.85 512.22 200.83Z" fill="black"/>
<path d="M545.94 200.83C543.894 199.957 542.121 198.547 540.81 196.75C539.568 194.995 538.898 192.9 538.89 190.75H544.71C544.877 192.644 545.744 194.409 547.14 195.7C548.56 197.033 550.63 197.7 553.35 197.7C555.57 197.826 557.758 197.132 559.5 195.75C560.226 195.139 560.805 194.372 561.194 193.506C561.584 192.641 561.774 191.699 561.75 190.75C561.812 189.331 561.341 187.94 560.43 186.85C559.529 185.836 558.397 185.053 557.13 184.57C555.382 183.914 553.599 183.353 551.79 182.89C549.53 182.335 547.313 181.613 545.16 180.73C543.471 179.987 542.003 178.819 540.9 177.34C539.64 175.523 539.017 173.339 539.13 171.13C539.092 168.982 539.698 166.871 540.87 165.07C542.077 163.271 543.774 161.855 545.76 160.99C548.038 159.994 550.504 159.502 552.99 159.55C556.441 159.403 559.839 160.44 562.62 162.49C563.834 163.419 564.839 164.594 565.568 165.938C566.297 167.282 566.734 168.765 566.85 170.29H560.85C560.6 168.603 559.695 167.083 558.33 166.06C556.646 164.778 554.564 164.13 552.45 164.23C550.439 164.142 548.463 164.769 546.87 166C546.148 166.599 545.577 167.359 545.202 168.218C544.826 169.078 544.658 170.014 544.71 170.95C544.653 172.309 545.114 173.639 546 174.67C546.874 175.639 547.963 176.389 549.18 176.86C550.44 177.36 552.21 177.93 554.49 178.57C556.76 179.162 558.986 179.914 561.15 180.82C562.854 181.579 564.34 182.755 565.47 184.24C566.758 186.068 567.392 188.277 567.27 190.51C567.273 192.543 566.712 194.537 565.65 196.27C564.487 198.147 562.825 199.663 560.85 200.65C558.526 201.817 555.95 202.394 553.35 202.33C550.801 202.364 548.275 201.852 545.94 200.83Z" fill="black"/>
<path d="M613.05 192.58H594.81L591.45 201.88H585.69L600.81 160.3H607.11L622.17 201.88H616.41L613.05 192.58ZM611.49 188.14L603.93 167L596.37 188.12L611.49 188.14Z" fill="black"/>
<path d="M660.15 201.88H654.69L632.69 168.58V201.88H627.23V160H632.69L654.69 193.24V160H660.15V201.88Z" fill="black"/>
<path d="M692.82 162.61C696.052 164.212 698.727 166.749 700.5 169.89C702.344 173.319 703.264 177.168 703.17 181.06C703.268 184.94 702.348 188.777 700.5 192.19C698.734 195.317 696.054 197.829 692.82 199.39C689.126 201.124 685.08 201.977 681 201.88H668V160.06H681C685.086 159.962 689.137 160.836 692.82 162.61ZM693.33 193.09C696.17 190.23 697.59 186.23 697.59 181.09C697.59 175.95 696.16 171.89 693.3 168.91C690.433 165.97 686.333 164.5 681 164.5H673.44V197.38H681C686.38 197.38 690.49 195.95 693.33 193.09Z" fill="black"/>
<path d="M729.24 200.83C727.194 199.957 725.421 198.547 724.11 196.75C722.868 194.995 722.198 192.9 722.19 190.75H728C728.167 192.644 729.034 194.409 730.43 195.7C731.85 197.033 733.92 197.7 736.64 197.7C738.86 197.826 741.048 197.132 742.79 195.75C743.516 195.139 744.095 194.372 744.484 193.506C744.874 192.641 745.064 191.699 745.04 190.75C745.102 189.331 744.631 187.94 743.72 186.85C742.819 185.836 741.687 185.053 740.42 184.57C738.672 183.914 736.889 183.353 735.08 182.89C732.82 182.335 730.603 181.613 728.45 180.73C726.761 179.987 725.293 178.819 724.19 177.34C722.93 175.523 722.307 173.339 722.42 171.13C722.382 168.982 722.988 166.871 724.16 165.07C725.367 163.271 727.064 161.855 729.05 160.99C731.328 159.994 733.794 159.502 736.28 159.55C739.731 159.403 743.129 160.44 745.91 162.49C747.124 163.419 748.129 164.594 748.858 165.938C749.587 167.282 750.024 168.765 750.14 170.29H744.14C743.89 168.603 742.985 167.083 741.62 166.06C739.936 164.778 737.854 164.13 735.74 164.23C733.729 164.142 731.753 164.769 730.16 166C729.438 166.599 728.867 167.359 728.492 168.218C728.116 169.078 727.948 170.014 728 170.95C727.943 172.309 728.404 173.639 729.29 174.67C730.164 175.639 731.253 176.389 732.47 176.86C733.73 177.36 735.5 177.93 737.78 178.57C740.05 179.162 742.276 179.914 744.44 180.82C746.144 181.579 747.63 182.755 748.76 184.24C750.048 186.068 750.682 188.277 750.56 190.51C750.563 192.543 750.002 194.537 748.94 196.27C747.777 198.147 746.115 199.663 744.14 200.65C741.816 201.817 739.24 202.394 736.64 202.33C734.095 202.362 731.572 201.851 729.24 200.83Z" fill="black"/>
<path d="M782.85 160.06V164.5H771.45V201.88H766V164.5H754.53V160.06H782.85Z" fill="black"/>
<path d="M810.09 201.88L800.09 184.78H793.49V201.88H788.03V160.06H801.53C804.286 159.977 807.023 160.532 809.53 161.68C811.558 162.623 813.26 164.147 814.42 166.06C815.46 167.753 816.068 169.675 816.19 171.658C816.312 173.64 815.945 175.623 815.122 177.43C814.298 179.238 813.042 180.815 811.466 182.024C809.889 183.232 808.04 184.034 806.08 184.36L816.58 201.88H810.09ZM793.53 180.39H801.53C804.53 180.39 806.71 179.67 808.19 178.21C808.941 177.439 809.526 176.522 809.908 175.516C810.29 174.509 810.461 173.435 810.41 172.36C810.475 171.299 810.313 170.237 809.936 169.244C809.558 168.251 808.973 167.349 808.22 166.6C806.76 165.267 804.53 164.6 801.53 164.6H793.53V180.39Z" fill="black"/>
<path d="M828.51 164.5V178.5H843.75V183H828.51V197.4H845.51V201.9H823.01V160H845.51V164.5H828.51Z" fill="black"/>
<path d="M878.07 160.06V164.5H866.66V201.88H861.2V164.5H849.74V160.06H878.07Z" fill="black"/>
<path d="M884 169.93C885.768 166.743 888.371 164.098 891.53 162.28C894.75 160.429 898.407 159.476 902.12 159.52C906.338 159.424 910.49 160.572 914.06 162.82C917.487 165.053 920.098 168.337 921.5 172.18H915C913.95 169.785 912.209 167.759 910 166.36C907.632 164.965 904.917 164.271 902.17 164.36C899.417 164.305 896.701 164.996 894.31 166.36C891.98 167.732 890.087 169.736 888.85 172.14C887.472 174.865 886.785 177.887 886.85 180.94C886.789 183.97 887.476 186.969 888.85 189.67C890.084 192.079 891.978 194.087 894.31 195.46C896.701 196.824 899.417 197.515 902.17 197.46C904.916 197.54 907.629 196.847 910 195.46C912.212 194.078 913.955 192.06 915 189.67H921.54C920.13 193.484 917.519 196.738 914.1 198.94C910.523 201.169 906.373 202.306 902.16 202.21C898.45 202.254 894.796 201.312 891.57 199.48C888.414 197.685 885.81 195.06 884.04 191.89C882.226 188.507 881.277 184.728 881.277 180.89C881.277 177.052 882.226 173.273 884.04 169.89L884 169.93Z" fill="black"/>
<path d="M960.32 160.06V201.88H954.86V182.88H933.56V201.88H928.1V160.06H933.56V178.42H954.86V160.06H960.32Z" fill="black"/>
</svg>
